# xmcd CD database file
#
# Track frame offsets:
#	150
#	23719
#	41079
#	58787
#	77743
#	90229
#	101624
#	122681
#	133892
#	146229
#	163508
#	189609
#	207017
#	227141
#	239503
#	252201
#	267705
#	289114
#
# Disc length: 4132 seconds
#
# Revision: 0
# Processed by: cddbd v1.5.2PL0 Copyright (c) Steve Scherf et al.
# Submitted via: CDex 1.51
#
DISCID=08102212
DTITLE=Tabaco y sus Metales - Grandes Exitos
DYEAR=2007
DGENRE=Salsa
TTITLE0=Toto el mundo escucha
TTITLE1=Nostalgia
TTITLE2=Celda de Castigo
TTITLE3=Sinceridad
TTITLE4=Mi pueblo
TTITLE5=El vais de papa
TTITLE6=Lino
TTITLE7=Yo soy sonero
TTITLE8=Palito tingue
TTITLE9=Arrollando
TTITLE10=Ni poco ni demasiado
TTITLE11=La travoltera
TTITLE12=Tabaco con metales
TTITLE13=Mi burrito
TTITLE14=Ponte en ritmo
TTITLE15=Canto Divino
TTITLE16=Maraquero
TTITLE17=Una solo bandera
EXTD=YEAR: 2007
EXTT0=
EXTT1=
EXTT2=
EXTT3=
EXTT4=
EXTT5=
EXTT6=
EXTT7=
EXTT8=
EXTT9=
EXTT10=
EXTT11=
EXTT12=
EXTT13=
EXTT14=
EXTT15=
EXTT16=
EXTT17=
PLAYORDER=
